<?xml version="1.0" encoding="UTF-8" standalone="no"?>
<!DOCTYPE svg PUBLIC "-//W3C//DTD SVG 1.1//EN"
 "http://www.w3.org/Graphics/SVG/1.1/DTD/svg11.dtd">
<!-- Generated by graphviz version 2.47.0 (20210316.0004)
 -->
<!-- Title: dependencies Pages: 1 -->
<svg width="2324pt" height="287pt"
 viewBox="0.00 0.00 2324.00 287.00" xmlns="http://www.w3.org/2000/svg" xmlns:xlink="http://www.w3.org/1999/xlink">
<g id="graph0" class="graph" transform="scale(1 1) rotate(0) translate(4 283)">
<title>dependencies</title>
<polygon fill="white" stroke="transparent" points="-4,4 -4,-283 2320,-283 2320,4 -4,4"/>
<text text-anchor="start" x="1137.01" y="-42.4" font-family="Times-12" font-weight="bold" font-size="14.00">Legend</text>
<polygon fill="#ffffb3" stroke="transparent" points="924,-10 924,-30 944,-30 944,-10 924,-10"/>
<text text-anchor="start" x="947.63" y="-15.4" font-family="Times-12" font-size="14.00"> &#160;Declarations</text>
<polygon fill="#8dd3c7" stroke="transparent" points="1037,-10 1037,-30 1057,-30 1057,-10 1037,-10"/>
<text text-anchor="start" x="1060.73" y="-15.4" font-family="Times-12" font-size="14.00"> &#160;Module</text>
<polygon fill="#80b1d3" stroke="transparent" points="1123,-10 1123,-30 1143,-30 1143,-10 1123,-10"/>
<text text-anchor="start" x="1146.78" y="-15.4" font-family="Times-12" font-size="14.00"> &#160;Bootstrap</text>
<polygon fill="#fdb462" stroke="transparent" points="1220,-10 1220,-30 1240,-30 1240,-10 1220,-10"/>
<text text-anchor="start" x="1243.67" y="-15.4" font-family="Times-12" font-size="14.00"> &#160;Providers</text>
<polygon fill="#fb8072" stroke="transparent" points="1316,-10 1316,-30 1336,-30 1336,-10 1316,-10"/>
<text text-anchor="start" x="1339.73" y="-15.4" font-family="Times-12" font-size="14.00"> &#160;Exports</text>
<g id="clust1" class="cluster">
<title>cluster_AppModule</title>
<polygon fill="none" stroke="black" stroke-dasharray="1,5" points="558,-70 558,-271 1218,-271 1218,-70 558,-70"/>
</g>
<g id="clust3" class="cluster">
<title>cluster_AppModule_imports</title>
<polygon fill="none" stroke="black" points="704,-78 704,-206 1210,-206 1210,-78 704,-78"/>
</g>
<g id="clust6" class="cluster">
<title>cluster_AppModule_providers</title>
<polygon fill="none" stroke="black" points="566,-154 566,-206 696,-206 696,-154 566,-154"/>
</g>
<g id="clust13" class="cluster">
<title>cluster_BookModule</title>
<polygon fill="none" stroke="black" stroke-dasharray="1,5" points="396,-70 396,-138 550,-138 550,-70 396,-70"/>
</g>
<g id="clust18" class="cluster">
<title>cluster_BookModule_providers</title>
<polygon fill="none" stroke="black" points="404,-78 404,-130 542,-130 542,-78 404,-78"/>
</g>
<g id="clust19" class="cluster">
<title>cluster_SsoModule</title>
<polygon fill="none" stroke="black" stroke-dasharray="1,5" points="8,-70 8,-138 388,-138 388,-70 8,-70"/>
</g>
<g id="clust22" class="cluster">
<title>cluster_SsoModule_exports</title>
<polygon fill="none" stroke="black" points="280,-78 280,-130 380,-130 380,-78 280,-78"/>
</g>
<g id="clust24" class="cluster">
<title>cluster_SsoModule_providers</title>
<polygon fill="none" stroke="black" points="16,-78 16,-130 272,-130 272,-78 16,-78"/>
</g>
<g id="clust25" class="cluster">
<title>cluster_UploadModule</title>
<polygon fill="none" stroke="black" stroke-dasharray="1,5" points="1226,-146 1226,-214 1520,-214 1520,-146 1226,-146"/>
</g>
<g id="clust28" class="cluster">
<title>cluster_UploadModule_exports</title>
<polygon fill="none" stroke="black" points="1394,-154 1394,-206 1512,-206 1512,-154 1394,-154"/>
</g>
<g id="clust30" class="cluster">
<title>cluster_UploadModule_providers</title>
<polygon fill="none" stroke="black" points="1234,-154 1234,-206 1386,-206 1386,-154 1234,-154"/>
</g>
<g id="clust31" class="cluster">
<title>cluster_UsersModule</title>
<polygon fill="none" stroke="black" stroke-dasharray="1,5" points="1528,-146 1528,-214 1802,-214 1802,-146 1528,-146"/>
</g>
<g id="clust34" class="cluster">
<title>cluster_UsersModule_exports</title>
<polygon fill="none" stroke="black" points="1684,-154 1684,-206 1794,-206 1794,-154 1684,-154"/>
</g>
<g id="clust36" class="cluster">
<title>cluster_UsersModule_providers</title>
<polygon fill="none" stroke="black" points="1536,-154 1536,-206 1676,-206 1676,-154 1536,-154"/>
</g>
<g id="clust37" class="cluster">
<title>cluster_WeatherModule</title>
<polygon fill="none" stroke="black" stroke-dasharray="1,5" points="1810,-146 1810,-214 2120,-214 2120,-146 1810,-146"/>
</g>
<g id="clust40" class="cluster">
<title>cluster_WeatherModule_exports</title>
<polygon fill="none" stroke="black" points="1988,-154 1988,-206 2112,-206 2112,-154 1988,-154"/>
</g>
<g id="clust42" class="cluster">
<title>cluster_WeatherModule_providers</title>
<polygon fill="none" stroke="black" points="1818,-154 1818,-206 1980,-206 1980,-154 1818,-154"/>
</g>
<g id="clust43" class="cluster">
<title>cluster_WechatyModule</title>
<polygon fill="none" stroke="black" stroke-dasharray="1,5" points="2128,-70 2128,-206 2308,-206 2308,-70 2128,-70"/>
</g>
<g id="clust48" class="cluster">
<title>cluster_WechatyModule_providers</title>
<polygon fill="none" stroke="black" points="2136,-78 2136,-130 2300,-130 2300,-78 2136,-78"/>
</g>
<!-- AuthorizationModule -->
<g id="node1" class="node">
<title>AuthorizationModule</title>
<polygon fill="#8dd3c7" stroke="black" points="849.81,-122 846.81,-126 825.81,-126 822.81,-122 712.19,-122 712.19,-86 849.81,-86 849.81,-122"/>
<text text-anchor="middle" x="781" y="-99.8" font-family="Times,serif" font-size="14.00">AuthorizationModule</text>
</g>
<!-- AppModule -->
<g id="node7" class="node">
<title>AppModule</title>
<polygon fill="#8dd3c7" stroke="black" points="960.66,-263 957.66,-267 936.66,-267 933.66,-263 877.34,-263 877.34,-227 960.66,-227 960.66,-263"/>
<text text-anchor="middle" x="919" y="-240.8" font-family="Times,serif" font-size="14.00">AppModule</text>
</g>
<!-- AuthorizationModule&#45;&gt;AppModule -->
<g id="edge1" class="edge">
<title>AuthorizationModule&#45;&gt;AppModule</title>
<path fill="none" stroke="black" d="M800.97,-122.08C800.97,-158.23 800.97,-236 800.97,-236 800.97,-236 867.06,-236 867.06,-236"/>
<polygon fill="black" stroke="black" points="867.06,-239.5 877.06,-236 867.06,-232.5 867.06,-239.5"/>
</g>
<!-- BookModule -->
<g id="node2" class="node">
<title>BookModule</title>
<polygon fill="#8dd3c7" stroke="black" points="899.89,-198 896.89,-202 875.89,-202 872.89,-198 810.11,-198 810.11,-162 899.89,-162 899.89,-198"/>
<text text-anchor="middle" x="855" y="-175.8" font-family="Times,serif" font-size="14.00">BookModule</text>
</g>
<!-- BookModule&#45;&gt;AppModule -->
<g id="edge2" class="edge">
<title>BookModule&#45;&gt;AppModule</title>
<path fill="none" stroke="black" d="M888.56,-198.11C888.56,-198.11 888.56,-216.99 888.56,-216.99"/>
<polygon fill="black" stroke="black" points="885.06,-216.99 888.56,-226.99 892.06,-216.99 885.06,-216.99"/>
</g>
<!-- SsoModule -->
<g id="node3" class="node">
<title>SsoModule</title>
<polygon fill="#8dd3c7" stroke="black" points="791.78,-198 788.78,-202 767.78,-202 764.78,-198 712.22,-198 712.22,-162 791.78,-162 791.78,-198"/>
<text text-anchor="middle" x="752" y="-175.8" font-family="Times,serif" font-size="14.00">SsoModule</text>
</g>
<!-- SsoModule&#45;&gt;AppModule -->
<g id="edge3" class="edge">
<title>SsoModule&#45;&gt;AppModule</title>
<path fill="none" stroke="black" d="M752,-198.11C752,-217.34 752,-245 752,-245 752,-245 867.29,-245 867.29,-245"/>
<polygon fill="black" stroke="black" points="867.29,-248.5 877.29,-245 867.29,-241.5 867.29,-248.5"/>
</g>
<!-- SsoModule  -->
<g id="node10" class="node">
<title>SsoModule </title>
<polygon fill="#fb8072" stroke="black" points="371.78,-122 288.22,-122 288.22,-86 371.78,-86 371.78,-122"/>
<text text-anchor="middle" x="330" y="-99.8" font-family="Times,serif" font-size="14.00">SsoModule </text>
</g>
<!-- SsoModule&#45;&gt;SsoModule  -->
<g id="edge11" class="edge">
<title>SsoModule&#45;&gt;SsoModule </title>
<path fill="none" stroke="black" stroke-dasharray="5,2" d="M760.07,-161.68C760.07,-153.21 760.07,-145 760.07,-145 760.07,-145 330,-145 330,-145 330,-145 330,-132.1 330,-132.1"/>
<polygon fill="black" stroke="black" points="333.5,-132.1 330,-122.1 326.5,-132.1 333.5,-132.1"/>
</g>
<!-- UploadModule -->
<g id="node4" class="node">
<title>UploadModule</title>
<polygon fill="#8dd3c7" stroke="black" points="968.26,-122 965.26,-126 944.26,-126 941.26,-122 867.74,-122 867.74,-86 968.26,-86 968.26,-122"/>
<text text-anchor="middle" x="918" y="-99.8" font-family="Times,serif" font-size="14.00">UploadModule</text>
</g>
<!-- UploadModule&#45;&gt;BookModule -->
<g id="edge8" class="edge">
<title>UploadModule&#45;&gt;BookModule</title>
<path fill="none" stroke="black" d="M883.78,-122.01C883.78,-122.01 883.78,-151.85 883.78,-151.85"/>
<polygon fill="black" stroke="black" points="880.28,-151.85 883.78,-161.85 887.28,-151.85 880.28,-151.85"/>
</g>
<!-- UploadModule&#45;&gt;AppModule -->
<g id="edge4" class="edge">
<title>UploadModule&#45;&gt;AppModule</title>
<path fill="none" stroke="black" d="M930.39,-122.14C930.39,-122.14 930.39,-216.93 930.39,-216.93"/>
<polygon fill="black" stroke="black" points="926.89,-216.92 930.39,-226.93 933.89,-216.93 926.89,-216.92"/>
</g>
<!-- UploadService  -->
<g id="node13" class="node">
<title>UploadService </title>
<polygon fill="#fb8072" stroke="black" points="1504.19,-198 1401.81,-198 1401.81,-162 1504.19,-162 1504.19,-198"/>
<text text-anchor="middle" x="1453" y="-175.8" font-family="Times,serif" font-size="14.00">UploadService </text>
</g>
<!-- UploadModule&#45;&gt;UploadService  -->
<g id="edge14" class="edge">
<title>UploadModule&#45;&gt;UploadService </title>
<path fill="none" stroke="black" stroke-dasharray="5,2" d="M963.35,-122.24C963.35,-129.43 963.35,-136 963.35,-136 963.35,-136 1453,-136 1453,-136 1453,-136 1453,-151.85 1453,-151.85"/>
<polygon fill="black" stroke="black" points="1449.5,-151.85 1453,-161.85 1456.5,-151.85 1449.5,-151.85"/>
</g>
<!-- UsersModule -->
<g id="node5" class="node">
<title>UsersModule</title>
<polygon fill="#8dd3c7" stroke="black" points="1077.92,-122 1074.92,-126 1053.92,-126 1050.92,-122 986.08,-122 986.08,-86 1077.92,-86 1077.92,-122"/>
<text text-anchor="middle" x="1032" y="-99.8" font-family="Times,serif" font-size="14.00">UsersModule</text>
</g>
<!-- UsersModule&#45;&gt;SsoModule -->
<g id="edge10" class="edge">
<title>UsersModule&#45;&gt;SsoModule</title>
<path fill="none" stroke="black" d="M1004.57,-122.28C1004.57,-137.95 1004.57,-158 1004.57,-158 1004.57,-158 775.98,-158 775.98,-158 775.98,-158 775.98,-158.38 775.98,-158.38"/>
<polygon fill="black" stroke="black" points="772.48,-151.83 775.98,-161.83 779.48,-151.83 772.48,-151.83"/>
</g>
<!-- UsersModule&#45;&gt;AppModule -->
<g id="edge5" class="edge">
<title>UsersModule&#45;&gt;AppModule</title>
<path fill="none" stroke="black" d="M1059.43,-122.21C1059.43,-159.06 1059.43,-239 1059.43,-239 1059.43,-239 970.75,-239 970.75,-239"/>
<polygon fill="black" stroke="black" points="970.75,-235.5 960.75,-239 970.75,-242.5 970.75,-235.5"/>
</g>
<!-- UsersService  -->
<g id="node15" class="node">
<title>UsersService </title>
<polygon fill="#fb8072" stroke="black" points="1785.85,-198 1692.15,-198 1692.15,-162 1785.85,-162 1785.85,-198"/>
<text text-anchor="middle" x="1739" y="-175.8" font-family="Times,serif" font-size="14.00">UsersService </text>
</g>
<!-- UsersModule&#45;&gt;UsersService  -->
<g id="edge16" class="edge">
<title>UsersModule&#45;&gt;UsersService </title>
<path fill="none" stroke="black" stroke-dasharray="5,2" d="M1022.86,-122.12C1022.86,-124.97 1022.86,-127 1022.86,-127 1022.86,-127 1739,-127 1739,-127 1739,-127 1739,-151.76 1739,-151.76"/>
<polygon fill="black" stroke="black" points="1735.5,-151.76 1739,-161.76 1742.5,-151.76 1735.5,-151.76"/>
</g>
<!-- WeatherModule -->
<g id="node6" class="node">
<title>WeatherModule</title>
<polygon fill="#8dd3c7" stroke="black" points="1202.46,-122 1199.46,-126 1178.46,-126 1175.46,-122 1095.54,-122 1095.54,-86 1202.46,-86 1202.46,-122"/>
<text text-anchor="middle" x="1149" y="-99.8" font-family="Times,serif" font-size="14.00">WeatherModule</text>
</g>
<!-- WeatherModule&#45;&gt;AppModule -->
<g id="edge6" class="edge">
<title>WeatherModule&#45;&gt;AppModule</title>
<path fill="none" stroke="black" d="M1149,-122.03C1149,-161.28 1149,-251 1149,-251 1149,-251 970.92,-251 970.92,-251"/>
<polygon fill="black" stroke="black" points="970.92,-247.5 960.92,-251 970.92,-254.5 970.92,-247.5"/>
</g>
<!-- WeatherService  -->
<g id="node17" class="node">
<title>WeatherService </title>
<polygon fill="#fb8072" stroke="black" points="2104.39,-198 1995.61,-198 1995.61,-162 2104.39,-162 2104.39,-198"/>
<text text-anchor="middle" x="2050" y="-175.8" font-family="Times,serif" font-size="14.00">WeatherService </text>
</g>
<!-- WeatherModule&#45;&gt;WeatherService  -->
<g id="edge18" class="edge">
<title>WeatherModule&#45;&gt;WeatherService </title>
<path fill="none" stroke="black" stroke-dasharray="5,2" d="M1202.66,-98C1396.63,-98 2050,-98 2050,-98 2050,-98 2050,-151.8 2050,-151.8"/>
<polygon fill="black" stroke="black" points="2046.5,-151.8 2050,-161.8 2053.5,-151.8 2046.5,-151.8"/>
</g>
<!-- AppService -->
<g id="node8" class="node">
<title>AppService</title>
<ellipse fill="#fdb462" stroke="black" cx="631" cy="-180" rx="56.74" ry="18"/>
<text text-anchor="middle" x="631" y="-175.8" font-family="Times,serif" font-size="14.00">AppService</text>
</g>
<!-- AppService&#45;&gt;AppModule -->
<g id="edge7" class="edge">
<title>AppService&#45;&gt;AppModule</title>
<path fill="none" stroke="black" d="M631,-198.29C631,-220.21 631,-254 631,-254 631,-254 867.12,-254 867.12,-254"/>
<polygon fill="black" stroke="black" points="867.12,-257.5 877.12,-254 867.12,-250.5 867.12,-257.5"/>
</g>
<!-- BookService -->
<g id="node9" class="node">
<title>BookService</title>
<ellipse fill="#fdb462" stroke="black" cx="473" cy="-104" rx="60.84" ry="18"/>
<text text-anchor="middle" x="473" y="-99.8" font-family="Times,serif" font-size="14.00">BookService</text>
</g>
<!-- BookService&#45;&gt;BookModule -->
<g id="edge9" class="edge">
<title>BookService&#45;&gt;BookModule</title>
<path fill="none" stroke="black" d="M473,-122C473,-131 473,-140 473,-140 473,-140 829.86,-140 829.86,-140 829.86,-140 829.86,-151.87 829.86,-151.87"/>
<polygon fill="black" stroke="black" points="826.36,-151.87 829.86,-161.87 833.36,-151.87 826.36,-151.87"/>
</g>
<!-- JwtStrategy -->
<g id="node11" class="node">
<title>JwtStrategy</title>
<ellipse fill="#fdb462" stroke="black" cx="207" cy="-104" rx="56.76" ry="18"/>
<text text-anchor="middle" x="207" y="-99.8" font-family="Times,serif" font-size="14.00">JwtStrategy</text>
</g>
<!-- JwtStrategy&#45;&gt;SsoModule -->
<g id="edge12" class="edge">
<title>JwtStrategy&#45;&gt;SsoModule</title>
<path fill="none" stroke="black" d="M207,-122.04C207,-134.56 207,-149 207,-149 207,-149 744.16,-149 744.16,-149 744.16,-149 744.16,-151.97 744.16,-151.97"/>
<polygon fill="black" stroke="black" points="740.66,-151.97 744.16,-161.97 747.66,-151.97 740.66,-151.97"/>
</g>
<!-- SsoService -->
<g id="node12" class="node">
<title>SsoService</title>
<ellipse fill="#fdb462" stroke="black" cx="78" cy="-104" rx="53.89" ry="18"/>
<text text-anchor="middle" x="78" y="-99.8" font-family="Times,serif" font-size="14.00">SsoService</text>
</g>
<!-- SsoService&#45;&gt;SsoModule -->
<g id="edge13" class="edge">
<title>SsoService&#45;&gt;SsoModule</title>
<path fill="none" stroke="black" d="M78,-122.05C78,-136.37 78,-154 78,-154 78,-154 728.25,-154 728.25,-154 728.25,-154 728.25,-154.79 728.25,-154.79"/>
<polygon fill="black" stroke="black" points="724.75,-151.94 728.25,-161.94 731.75,-151.94 724.75,-151.94"/>
</g>
<!-- UploadService -->
<g id="node14" class="node">
<title>UploadService</title>
<ellipse fill="#fdb462" stroke="black" cx="1310" cy="-180" rx="68.34" ry="18"/>
<text text-anchor="middle" x="1310" y="-175.8" font-family="Times,serif" font-size="14.00">UploadService</text>
</g>
<!-- UploadService&#45;&gt;UploadModule -->
<g id="edge15" class="edge">
<title>UploadService&#45;&gt;UploadModule</title>
<path fill="none" stroke="black" d="M1241.19,-180C1140.76,-180 965.86,-180 965.86,-180 965.86,-180 965.86,-132.01 965.86,-132.01"/>
<polygon fill="black" stroke="black" points="969.36,-132.01 965.86,-122.01 962.36,-132.01 969.36,-132.01"/>
</g>
<!-- UsersService -->
<g id="node16" class="node">
<title>UsersService</title>
<ellipse fill="#fdb462" stroke="black" cx="1606" cy="-180" rx="61.95" ry="18"/>
<text text-anchor="middle" x="1606" y="-175.8" font-family="Times,serif" font-size="14.00">UsersService</text>
</g>
<!-- UsersService&#45;&gt;UsersModule -->
<g id="edge17" class="edge">
<title>UsersService&#45;&gt;UsersModule</title>
<path fill="none" stroke="black" d="M1606,-161.75C1606,-147.82 1606,-131 1606,-131 1606,-131 1041.14,-131 1041.14,-131 1041.14,-131 1041.14,-130.12 1041.14,-130.12"/>
<polygon fill="black" stroke="black" points="1044.64,-132.16 1041.14,-122.16 1037.64,-132.16 1044.64,-132.16"/>
</g>
<!-- WeatherService -->
<g id="node18" class="node">
<title>WeatherService</title>
<ellipse fill="#fdb462" stroke="black" cx="1899" cy="-180" rx="72.89" ry="18"/>
<text text-anchor="middle" x="1899" y="-175.8" font-family="Times,serif" font-size="14.00">WeatherService</text>
</g>
<!-- WeatherService&#45;&gt;WeatherModule -->
<g id="edge19" class="edge">
<title>WeatherService&#45;&gt;WeatherModule</title>
<path fill="none" stroke="black" d="M1899,-161.97C1899,-141.23 1899,-110 1899,-110 1899,-110 1212.64,-110 1212.64,-110"/>
<polygon fill="black" stroke="black" points="1212.64,-106.5 1202.64,-110 1212.64,-113.5 1212.64,-106.5"/>
</g>
<!-- WechatyService -->
<g id="node19" class="node">
<title>WechatyService</title>
<ellipse fill="#fdb462" stroke="black" cx="2218" cy="-104" rx="74.12" ry="18"/>
<text text-anchor="middle" x="2218" y="-99.8" font-family="Times,serif" font-size="14.00">WechatyService</text>
</g>
<!-- WechatyModule -->
<g id="node20" class="node">
<title>WechatyModule</title>
<polygon fill="#8dd3c7" stroke="black" points="2272.8,-198 2269.8,-202 2248.8,-202 2245.8,-198 2163.2,-198 2163.2,-162 2272.8,-162 2272.8,-198"/>
<text text-anchor="middle" x="2218" y="-175.8" font-family="Times,serif" font-size="14.00">WechatyModule</text>
</g>
<!-- WechatyService&#45;&gt;WechatyModule -->
<g id="edge20" class="edge">
<title>WechatyService&#45;&gt;WechatyModule</title>
<path fill="none" stroke="black" d="M2218,-122.01C2218,-122.01 2218,-151.85 2218,-151.85"/>
<polygon fill="black" stroke="black" points="2214.5,-151.85 2218,-161.85 2221.5,-151.85 2214.5,-151.85"/>
</g>
</g>
</svg>
